# xmcd
#
# Track frame offsets:
# 150
# 17607
# 36527
# 57817
# 78402
# 100395
# 116122
# 137482
# 161607
# 182820
# 201040
#
# Disc length: 2930 seconds
#
#
# Revision: 4
# Processed by: cddbd v1.5.2PL0 Copyright (c) Steve Scherf et al.
# Submitted via: FreeRIP 2.52 
#
DISCID=920b700b
DTITLE=REO Speedwagon - Building The Bridge
DYEAR=1996
DGENRE=Rock
TTITLE0=Can't Stop Rockin'
TTITLE1=I Still Love You
TTITLE2=Building The Bridge
TTITLE3=When I Get Home
TTITLE4=Then I Met You
TTITLE5=Look The Other Way
TTITLE6=After Tonight
TTITLE7=Hey Wait A Minute
TTITLE8=One True Man
TTITLE9=She's Gonna Love Me
TTITLE10=Ballad Of The Illinois Opry
EXTD=
EXTT0=
EXTT1=
EXTT2=
EXTT3=
EXTT4=
EXTT5=
EXTT6=
EXTT7=
EXTT8=
EXTT9=
EXTT10=
PLAYORDER=
